solid ASCII
  facet normal -0.000000e+00 7.071068e-01 7.071068e-01
    outer loop
      vertex   3.550000e+01 -1.605000e+02 4.500000e+00
      vertex   4.550000e+01 -1.605000e+02 4.500000e+00
      vertex   3.550000e+01 -1.575000e+02 1.500000e+00
    endloop
  endfacet
  facet normal -4.710277e-17 7.071068e-01 7.071068e-01
    outer loop
      vertex   3.550000e+01 -1.575000e+02 1.500000e+00
      vertex   4.550000e+01 -1.605000e+02 4.500000e+00
      vertex   4.550000e+01 -1.575000e+02 1.500000e+00
    endloop
  endfacet
  facet normal 0.000000e+00 1.000000e+00 -0.000000e+00
    outer loop
      vertex   4.550000e+01 -1.605000e+02 4.500000e+00
      vertex   3.550000e+01 -1.605000e+02 4.500000e+00
      vertex   4.550000e+01 -1.605000e+02 3.850000e+01
    endloop
  endfacet
  facet normal -8.006115e-16 1.000000e+00 2.354740e-16
    outer loop
      vertex   4.550000e+01 -1.605000e+02 3.850000e+01
      vertex   3.550000e+01 -1.605000e+02 4.500000e+00
      vertex   -3.550000e+01 -1.605000e+02 4.500000e+00
    endloop
  endfacet
  facet normal -6.246530e-16 1.000000e+00 -1.837215e-16
    outer loop
      vertex   4.550000e+01 -1.605000e+02 3.850000e+01
      vertex   -3.550000e+01 -1.605000e+02 4.500000e+00
      vertex   -4.550000e+01 -1.605000e+02 3.850000e+01
    endloop
  endfacet
  facet normal 0.000000e+00 1.000000e+00 0.000000e+00
    outer loop
      vertex   -4.550000e+01 -1.605000e+02 3.850000e+01
      vertex   -3.550000e+01 -1.605000e+02 4.500000e+00
      vertex   -4.550000e+01 -1.605000e+02 4.500000e+00
    endloop
  endfacet
  facet normal -8.006115e-16 1.000000e+00 0.000000e+00
    outer loop
      vertex   3.550000e+01 -1.605000e+02 -1.500000e+00
      vertex   -3.550000e+01 -1.605000e+02 -1.500000e+00
      vertex   3.550000e+01 -1.605000e+02 4.500000e+00
    endloop
  endfacet
  facet normal -8.006115e-16 1.000000e+00 0.000000e+00
    outer loop
      vertex   3.550000e+01 -1.605000e+02 4.500000e+00
      vertex   -3.550000e+01 -1.605000e+02 -1.500000e+00
      vertex   -3.550000e+01 -1.605000e+02 4.500000e+00
    endloop
  endfacet
  facet normal 0.000000e+00 7.071068e-01 7.071068e-01
    outer loop
      vertex   -3.550000e+01 -1.575000e+02 1.500000e+00
      vertex   -4.550000e+01 -1.575000e+02 1.500000e+00
      vertex   -3.550000e+01 -1.605000e+02 4.500000e+00
    endloop
  endfacet
  facet normal 0.000000e+00 7.071068e-01 7.071068e-01
    outer loop
      vertex   -3.550000e+01 -1.605000e+02 4.500000e+00
      vertex   -4.550000e+01 -1.575000e+02 1.500000e+00
      vertex   -4.550000e+01 -1.605000e+02 4.500000e+00
    endloop
  endfacet
  facet normal -6.661338e-17 0.000000e+00 1.000000e+00
    outer loop
      vertex   3.550000e+01 -1.575000e+02 1.500000e+00
      vertex   4.550000e+01 -1.575000e+02 1.500000e+00
      vertex   3.550000e+01 -3.850000e+01 1.500000e+00
    endloop
  endfacet
  facet normal -6.661338e-17 0.000000e+00 1.000000e+00
    outer loop
      vertex   3.550000e+01 -3.850000e+01 1.500000e+00
      vertex   4.550000e+01 -1.575000e+02 1.500000e+00
      vertex   4.550000e+01 -2.515000e+01 1.500000e+00
    endloop
  endfacet
  facet normal 9.842234e-17 -1.236223e-16 1.000000e+00
    outer loop
      vertex   3.550000e+01 -3.850000e+01 1.500000e+00
      vertex   4.550000e+01 -2.515000e+01 1.500000e+00
      vertex   3.250000e+01 -3.550000e+01 1.500000e+00
    endloop
  endfacet
  facet normal 0.000000e+00 -0.000000e+00 1.000000e+00
    outer loop
      vertex   3.250000e+01 -3.550000e+01 1.500000e+00
      vertex   4.550000e+01 -2.515000e+01 1.500000e+00
      vertex   -3.480000e+01 -2.515000e+01 1.500000e+00
    endloop
  endfacet
  facet normal 0.000000e+00 0.000000e+00 1.000000e+00
    outer loop
      vertex   3.250000e+01 -3.550000e+01 1.500000e+00
      vertex   -3.480000e+01 -2.515000e+01 1.500000e+00
      vertex   -3.250000e+01 -3.550000e+01 1.500000e+00
    endloop
  endfacet
  facet normal 0.000000e+00 0.000000e+00 1.000000e+00
    outer loop
      vertex   -3.250000e+01 -3.550000e+01 1.500000e+00
      vertex   -3.480000e+01 -2.515000e+01 1.500000e+00
      vertex   -3.550000e+01 -3.850000e+01 1.500000e+00
    endloop
  endfacet
  facet normal 0.000000e+00 -0.000000e+00 1.000000e+00
    outer loop
      vertex   -3.550000e+01 -3.850000e+01 1.500000e+00
      vertex   -3.480000e+01 -2.515000e+01 1.500000e+00
      vertex   -4.550000e+01 3.550000e+01 1.500000e+00
    endloop
  endfacet
  facet normal 0.000000e+00 0.000000e+00 1.000000e+00
    outer loop
      vertex   -3.550000e+01 -3.850000e+01 1.500000e+00
      vertex   -4.550000e+01 3.550000e+01 1.500000e+00
      vertex   -4.550000e+01 -1.575000e+02 1.500000e+00
    endloop
  endfacet
  facet normal 0.000000e+00 -0.000000e+00 1.000000e+00
    outer loop
      vertex   -3.480000e+01 -2.515000e+01 1.500000e+00
      vertex   -3.480000e+01 2.215000e+01 1.500000e+00
      vertex   -4.550000e+01 3.550000e+01 1.500000e+00
    endloop
  endfacet
  facet normal 0.000000e+00 0.000000e+00 1.000000e+00
    outer loop
      vertex   -4.550000e+01 3.550000e+01 1.500000e+00
      vertex   -3.480000e+01 2.215000e+01 1.500000e+00
      vertex   -3.180000e+01 2.515000e+01 1.500000e+00
    endloop
  endfacet
  facet normal -0.000000e+00 0.000000e+00 1.000000e+00
    outer loop
      vertex   -4.550000e+01 3.550000e+01 1.500000e+00
      vertex   -3.180000e+01 2.515000e+01 1.500000e+00
      vertex   4.550000e+01 3.550000e+01 1.500000e+00
    endloop
  endfacet
  facet normal 0.000000e+00 0.000000e+00 1.000000e+00
    outer loop
      vertex   4.550000e+01 3.550000e+01 1.500000e+00
      vertex   -3.180000e+01 2.515000e+01 1.500000e+00
      vertex   4.550000e+01 2.515000e+01 1.500000e+00
    endloop
  endfacet
  facet normal 0.000000e+00 0.000000e+00 1.000000e+00
    outer loop
      vertex   -4.550000e+01 -1.575000e+02 1.500000e+00
      vertex   -3.550000e+01 -1.575000e+02 1.500000e+00
      vertex   -3.550000e+01 -3.850000e+01 1.500000e+00
    endloop
  endfacet
  facet normal 0.000000e+00 0.000000e+00 1.000000e+00
    outer loop
      vertex   -4.550000e+01 -1.655000e+02 3.850000e+01
      vertex   4.550000e+01 -1.655000e+02 3.850000e+01
      vertex   -4.550000e+01 -1.605000e+02 3.850000e+01
    endloop
  endfacet
  facet normal -0.000000e+00 0.000000e+00 1.000000e+00
    outer loop
      vertex   -4.550000e+01 -1.605000e+02 3.850000e+01
      vertex   4.550000e+01 -1.655000e+02 3.850000e+01
      vertex   4.550000e+01 -1.605000e+02 3.850000e+01
    endloop
  endfacet
  facet normal 1.000000e+00 0.000000e+00 0.000000e+00
    outer loop
      vertex   4.550000e+01 -2.515000e+01 -1.500000e+00
      vertex   4.550000e+01 -1.575000e+02 1.500000e+00
      vertex   4.550000e+01 -1.655000e+02 -1.500000e+00
    endloop
  endfacet
  facet normal 1.000000e+00 0.000000e+00 0.000000e+00
    outer loop
      vertex   4.550000e+01 -1.655000e+02 -1.500000e+00
      vertex   4.550000e+01 -1.575000e+02 1.500000e+00
      vertex   4.550000e+01 -1.605000e+02 4.500000e+00
    endloop
  endfacet
  facet normal 1.000000e+00 0.000000e+00 0.000000e+00
    outer loop
      vertex   4.550000e+01 -1.655000e+02 -1.500000e+00
      vertex   4.550000e+01 -1.605000e+02 4.500000e+00
      vertex   4.550000e+01 -1.655000e+02 3.850000e+01
    endloop
  endfacet
  facet normal 1.000000e+00 -0.000000e+00 0.000000e+00
    outer loop
      vertex   4.550000e+01 -1.655000e+02 3.850000e+01
      vertex   4.550000e+01 -1.605000e+02 4.500000e+00
      vertex   4.550000e+01 -1.605000e+02 3.850000e+01
    endloop
  endfacet
  facet normal 1.000000e+00 0.000000e+00 0.000000e+00
    outer loop
      vertex   4.550000e+01 -2.428397e+01 3.330669e-15
      vertex   4.550000e+01 -2.515000e+01 1.500000e+00
      vertex   4.550000e+01 -2.515000e+01 -1.500000e+00
    endloop
  endfacet
  facet normal 1.000000e+00 0.000000e+00 -0.000000e+00
    outer loop
      vertex   4.550000e+01 -2.515000e+01 -1.500000e+00
      vertex   4.550000e+01 -2.515000e+01 1.500000e+00
      vertex   4.550000e+01 -1.575000e+02 1.500000e+00
    endloop
  endfacet
  facet normal -1.000000e+00 -0.000000e+00 -0.000000e+00
    outer loop
      vertex   -4.550000e+01 3.550000e+01 1.500000e+00
      vertex   -4.550000e+01 3.550000e+01 -1.500000e+00
      vertex   -4.550000e+01 -1.575000e+02 1.500000e+00
    endloop
  endfacet
  facet normal -1.000000e+00 0.000000e+00 -0.000000e+00
    outer loop
      vertex   -4.550000e+01 -1.575000e+02 1.500000e+00
      vertex   -4.550000e+01 3.550000e+01 -1.500000e+00
      vertex   -4.550000e+01 -1.655000e+02 -1.500000e+00
    endloop
  endfacet
  facet normal -1.000000e+00 -0.000000e+00 0.000000e+00
    outer loop
      vertex   -4.550000e+01 -1.575000e+02 1.500000e+00
      vertex   -4.550000e+01 -1.655000e+02 -1.500000e+00
      vertex   -4.550000e+01 -1.605000e+02 4.500000e+00
    endloop
  endfacet
  facet normal -1.000000e+00 -0.000000e+00 0.000000e+00
    outer loop
      vertex   -4.550000e+01 -1.605000e+02 4.500000e+00
      vertex   -4.550000e+01 -1.655000e+02 -1.500000e+00
      vertex   -4.550000e+01 -1.655000e+02 3.850000e+01
    endloop
  endfacet
  facet normal -1.000000e+00 0.000000e+00 0.000000e+00
    outer loop
      vertex   -4.550000e+01 -1.605000e+02 4.500000e+00
      vertex   -4.550000e+01 -1.655000e+02 3.850000e+01
      vertex   -4.550000e+01 -1.605000e+02 3.850000e+01
    endloop
  endfacet
  facet normal 0.000000e+00 0.000000e+00 -1.000000e+00
    outer loop
      vertex   3.550000e+01 -3.850000e+01 -1.500000e+00
      vertex   4.550000e+01 -1.655000e+02 -1.500000e+00
      vertex   3.550000e+01 -1.605000e+02 -1.500000e+00
    endloop
  endfacet
  facet normal 0.000000e+00 -0.000000e+00 -1.000000e+00
    outer loop
      vertex   3.550000e+01 -1.605000e+02 -1.500000e+00
      vertex   4.550000e+01 -1.655000e+02 -1.500000e+00
      vertex   -4.550000e+01 -1.655000e+02 -1.500000e+00
    endloop
  endfacet
  facet normal 0.000000e+00 0.000000e+00 -1.000000e+00
    outer loop
      vertex   3.550000e+01 -1.605000e+02 -1.500000e+00
      vertex   -4.550000e+01 -1.655000e+02 -1.500000e+00
      vertex   -3.550000e+01 -1.605000e+02 -1.500000e+00
    endloop
  endfacet
  facet normal -0.000000e+00 0.000000e+00 -1.000000e+00
    outer loop
      vertex   -3.550000e+01 -1.605000e+02 -1.500000e+00
      vertex   -4.550000e+01 -1.655000e+02 -1.500000e+00
      vertex   -3.550000e+01 -3.850000e+01 -1.500000e+00
    endloop
  endfacet
  facet normal -0.000000e+00 0.000000e+00 -1.000000e+00
    outer loop
      vertex   -3.550000e+01 -3.850000e+01 -1.500000e+00
      vertex   -4.550000e+01 -1.655000e+02 -1.500000e+00
      vertex   -4.550000e+01 3.550000e+01 -1.500000e+00
    endloop
  endfacet
  facet normal 0.000000e+00 0.000000e+00 -1.000000e+00
    outer loop
      vertex   -3.550000e+01 -3.850000e+01 -1.500000e+00
      vertex   -4.550000e+01 3.550000e+01 -1.500000e+00
      vertex   -3.480000e+01 -2.515000e+01 -1.500000e+00
    endloop
  endfacet
  facet normal 0.000000e+00 0.000000e+00 -1.000000e+00
    outer loop
      vertex   -3.480000e+01 -2.515000e+01 -1.500000e+00
      vertex   -4.550000e+01 3.550000e+01 -1.500000e+00
      vertex   -3.480000e+01 2.215000e+01 -1.500000e+00
    endloop
  endfacet
  facet normal 0.000000e+00 0.000000e+00 -1.000000e+00
    outer loop
      vertex   -3.480000e+01 2.215000e+01 -1.500000e+00
      vertex   -4.550000e+01 3.550000e+01 -1.500000e+00
      vertex   -3.180000e+01 2.515000e+01 -1.500000e+00
    endloop
  endfacet
  facet normal 0.000000e+00 0.000000e+00 -1.000000e+00
    outer loop
      vertex   -3.180000e+01 2.515000e+01 -1.500000e+00
      vertex   -4.550000e+01 3.550000e+01 -1.500000e+00
      vertex   4.550000e+01 3.550000e+01 -1.500000e+00
    endloop
  endfacet
  facet normal 0.000000e+00 0.000000e+00 -1.000000e+00
    outer loop
      vertex   -3.180000e+01 2.515000e+01 -1.500000e+00
      vertex   4.550000e+01 3.550000e+01 -1.500000e+00
      vertex   4.550000e+01 2.515000e+01 -1.500000e+00
    endloop
  endfacet
  facet normal 0.000000e+00 0.000000e+00 -1.000000e+00
    outer loop
      vertex   4.550000e+01 -1.655000e+02 -1.500000e+00
      vertex   3.550000e+01 -3.850000e+01 -1.500000e+00
      vertex   4.550000e+01 -2.515000e+01 -1.500000e+00
    endloop
  endfacet
  facet normal 0.000000e+00 0.000000e+00 -1.000000e+00
    outer loop
      vertex   4.550000e+01 -2.515000e+01 -1.500000e+00
      vertex   3.550000e+01 -3.850000e+01 -1.500000e+00
      vertex   3.250000e+01 -3.550000e+01 -1.500000e+00
    endloop
  endfacet
  facet normal -0.000000e+00 0.000000e+00 -1.000000e+00
    outer loop
      vertex   4.550000e+01 -2.515000e+01 -1.500000e+00
      vertex   3.250000e+01 -3.550000e+01 -1.500000e+00
      vertex   -3.480000e+01 -2.515000e+01 -1.500000e+00
    endloop
  endfacet
  facet normal 0.000000e+00 0.000000e+00 -1.000000e+00
    outer loop
      vertex   -3.480000e+01 -2.515000e+01 -1.500000e+00
      vertex   3.250000e+01 -3.550000e+01 -1.500000e+00
      vertex   -3.250000e+01 -3.550000e+01 -1.500000e+00
    endloop
  endfacet
  facet normal 0.000000e+00 -0.000000e+00 -1.000000e+00
    outer loop
      vertex   -3.480000e+01 -2.515000e+01 -1.500000e+00
      vertex   -3.250000e+01 -3.550000e+01 -1.500000e+00
      vertex   -3.550000e+01 -3.850000e+01 -1.500000e+00
    endloop
  endfacet
  facet normal 1.000000e+00 0.000000e+00 0.000000e+00
    outer loop
      vertex   -3.550000e+01 -1.605000e+02 4.500000e+00
      vertex   -3.550000e+01 -1.605000e+02 -1.500000e+00
      vertex   -3.550000e+01 -1.575000e+02 1.500000e+00
    endloop
  endfacet
  facet normal 1.000000e+00 0.000000e+00 0.000000e+00
    outer loop
      vertex   -3.550000e+01 -1.575000e+02 1.500000e+00
      vertex   -3.550000e+01 -1.605000e+02 -1.500000e+00
      vertex   -3.550000e+01 -3.850000e+01 -1.500000e+00
    endloop
  endfacet
  facet normal 1.000000e+00 -0.000000e+00 0.000000e+00
    outer loop
      vertex   -3.550000e+01 -1.575000e+02 1.500000e+00
      vertex   -3.550000e+01 -3.850000e+01 -1.500000e+00
      vertex   -3.550000e+01 -3.850000e+01 1.500000e+00
    endloop
  endfacet
  facet normal -7.071068e-01 -7.071068e-01 0.000000e+00
    outer loop
      vertex   3.550000e+01 -3.850000e+01 -1.500000e+00
      vertex   3.550000e+01 -3.850000e+01 1.500000e+00
      vertex   3.250000e+01 -3.550000e+01 -1.500000e+00
    endloop
  endfacet
  facet normal -7.071068e-01 -7.071068e-01 0.000000e+00
    outer loop
      vertex   3.250000e+01 -3.550000e+01 -1.500000e+00
      vertex   3.550000e+01 -3.850000e+01 1.500000e+00
      vertex   3.250000e+01 -3.550000e+01 1.500000e+00
    endloop
  endfacet
  facet normal -1.000000e+00 0.000000e+00 0.000000e+00
    outer loop
      vertex   3.550000e+01 -1.605000e+02 4.500000e+00
      vertex   3.550000e+01 -1.575000e+02 1.500000e+00
      vertex   3.550000e+01 -1.605000e+02 -1.500000e+00
    endloop
  endfacet
  facet normal -1.000000e+00 0.000000e+00 0.000000e+00
    outer loop
      vertex   3.550000e+01 -1.605000e+02 -1.500000e+00
      vertex   3.550000e+01 -1.575000e+02 1.500000e+00
      vertex   3.550000e+01 -3.850000e+01 -1.500000e+00
    endloop
  endfacet
  facet normal -1.000000e+00 0.000000e+00 0.000000e+00
    outer loop
      vertex   3.550000e+01 -3.850000e+01 -1.500000e+00
      vertex   3.550000e+01 -1.575000e+02 1.500000e+00
      vertex   3.550000e+01 -3.850000e+01 1.500000e+00
    endloop
  endfacet
  facet normal 7.071068e-01 -7.071068e-01 0.000000e+00
    outer loop
      vertex   -3.550000e+01 -3.850000e+01 1.500000e+00
      vertex   -3.550000e+01 -3.850000e+01 -1.500000e+00
      vertex   -3.250000e+01 -3.550000e+01 1.500000e+00
    endloop
  endfacet
  facet normal 7.071068e-01 -7.071068e-01 0.000000e+00
    outer loop
      vertex   -3.250000e+01 -3.550000e+01 1.500000e+00
      vertex   -3.550000e+01 -3.850000e+01 -1.500000e+00
      vertex   -3.250000e+01 -3.550000e+01 -1.500000e+00
    endloop
  endfacet
  facet normal 0.000000e+00 -1.000000e+00 0.000000e+00
    outer loop
      vertex   4.550000e+01 -1.655000e+02 -1.500000e+00
      vertex   4.550000e+01 -1.655000e+02 3.850000e+01
      vertex   -4.550000e+01 -1.655000e+02 -1.500000e+00
    endloop
  endfacet
  facet normal 0.000000e+00 -1.000000e+00 0.000000e+00
    outer loop
      vertex   -4.550000e+01 -1.655000e+02 -1.500000e+00
      vertex   4.550000e+01 -1.655000e+02 3.850000e+01
      vertex   -4.550000e+01 -1.655000e+02 3.850000e+01
    endloop
  endfacet
  facet normal -0.000000e+00 -1.000000e+00 -0.000000e+00
    outer loop
      vertex   3.250000e+01 -3.550000e+01 1.500000e+00
      vertex   -3.250000e+01 -3.550000e+01 1.500000e+00
      vertex   3.250000e+01 -3.550000e+01 -1.500000e+00
    endloop
  endfacet
  facet normal 0.000000e+00 -1.000000e+00 0.000000e+00
    outer loop
      vertex   3.250000e+01 -3.550000e+01 -1.500000e+00
      vertex   -3.250000e+01 -3.550000e+01 1.500000e+00
      vertex   -3.250000e+01 -3.550000e+01 -1.500000e+00
    endloop
  endfacet
  facet normal 0.000000e+00 -8.660254e-01 -5.000000e-01
    outer loop
      vertex   -3.266603e+01 2.428397e+01 3.330669e-15
      vertex   -3.180000e+01 2.515000e+01 -1.500000e+00
      vertex   4.550000e+01 2.428397e+01 3.330669e-15
    endloop
  endfacet
  facet normal 3.980259e-17 -8.660254e-01 -5.000000e-01
    outer loop
      vertex   4.550000e+01 2.428397e+01 3.330669e-15
      vertex   -3.180000e+01 2.515000e+01 -1.500000e+00
      vertex   4.550000e+01 2.515000e+01 -1.500000e+00
    endloop
  endfacet
  facet normal 0.000000e+00 -8.660254e-01 5.000000e-01
    outer loop
      vertex   -3.266603e+01 2.428397e+01 3.330669e-15
      vertex   4.550000e+01 2.428397e+01 3.330669e-15
      vertex   -3.180000e+01 2.515000e+01 1.500000e+00
    endloop
  endfacet
  facet normal 3.980259e-17 -8.660254e-01 5.000000e-01
    outer loop
      vertex   -3.180000e+01 2.515000e+01 1.500000e+00
      vertex   4.550000e+01 2.428397e+01 3.330669e-15
      vertex   4.550000e+01 2.515000e+01 1.500000e+00
    endloop
  endfacet
  facet normal 1.915779e-16 8.660254e-01 -5.000000e-01
    outer loop
      vertex   -3.480000e+01 -2.515000e+01 -1.500000e+00
      vertex   -3.480000e+01 -2.428397e+01 3.330669e-15
      vertex   4.550000e+01 -2.515000e+01 -1.500000e+00
    endloop
  endfacet
  facet normal 0.000000e+00 8.660254e-01 -5.000000e-01
    outer loop
      vertex   4.550000e+01 -2.515000e+01 -1.500000e+00
      vertex   -3.480000e+01 -2.428397e+01 3.330669e-15
      vertex   4.550000e+01 -2.428397e+01 3.330669e-15
    endloop
  endfacet
  facet normal -0.000000e+00 8.660254e-01 5.000000e-01
    outer loop
      vertex   -3.480000e+01 -2.428397e+01 3.330669e-15
      vertex   -3.480000e+01 -2.515000e+01 1.500000e+00
      vertex   4.550000e+01 -2.428397e+01 3.330669e-15
    endloop
  endfacet
  facet normal 1.915779e-16 8.660254e-01 5.000000e-01
    outer loop
      vertex   4.550000e+01 -2.428397e+01 3.330669e-15
      vertex   -3.480000e+01 -2.515000e+01 1.500000e+00
      vertex   4.550000e+01 -2.515000e+01 1.500000e+00
    endloop
  endfacet
  facet normal 1.000000e+00 -0.000000e+00 0.000000e+00
    outer loop
      vertex   -3.480000e+01 -2.515000e+01 1.500000e+00
      vertex   -3.480000e+01 -2.428397e+01 3.330669e-15
      vertex   -3.480000e+01 2.215000e+01 1.500000e+00
    endloop
  endfacet
  facet normal 1.000000e+00 0.000000e+00 0.000000e+00
    outer loop
      vertex   -3.480000e+01 2.215000e+01 1.500000e+00
      vertex   -3.480000e+01 -2.428397e+01 3.330669e-15
      vertex   -3.480000e+01 2.215000e+01 -1.500000e+00
    endloop
  endfacet
  facet normal 1.000000e+00 0.000000e+00 0.000000e+00
    outer loop
      vertex   -3.480000e+01 2.215000e+01 -1.500000e+00
      vertex   -3.480000e+01 -2.428397e+01 3.330669e-15
      vertex   -3.480000e+01 -2.515000e+01 -1.500000e+00
    endloop
  endfacet
  facet normal -0.000000e+00 1.000000e+00 0.000000e+00
    outer loop
      vertex   -4.550000e+01 3.550000e+01 1.500000e+00
      vertex   4.550000e+01 3.550000e+01 1.500000e+00
      vertex   -4.550000e+01 3.550000e+01 -1.500000e+00
    endloop
  endfacet
  facet normal 0.000000e+00 1.000000e+00 0.000000e+00
    outer loop
      vertex   -4.550000e+01 3.550000e+01 -1.500000e+00
      vertex   4.550000e+01 3.550000e+01 1.500000e+00
      vertex   4.550000e+01 3.550000e+01 -1.500000e+00
    endloop
  endfacet
  facet normal 1.000000e+00 0.000000e+00 -0.000000e+00
    outer loop
      vertex   4.550000e+01 2.515000e+01 -1.500000e+00
      vertex   4.550000e+01 3.550000e+01 -1.500000e+00
      vertex   4.550000e+01 2.428397e+01 3.330669e-15
    endloop
  endfacet
  facet normal 1.000000e+00 -0.000000e+00 0.000000e+00
    outer loop
      vertex   4.550000e+01 2.428397e+01 3.330669e-15
      vertex   4.550000e+01 3.550000e+01 -1.500000e+00
      vertex   4.550000e+01 3.550000e+01 1.500000e+00
    endloop
  endfacet
  facet normal 1.000000e+00 0.000000e+00 0.000000e+00
    outer loop
      vertex   4.550000e+01 2.428397e+01 3.330669e-15
      vertex   4.550000e+01 3.550000e+01 1.500000e+00
      vertex   4.550000e+01 2.515000e+01 1.500000e+00
    endloop
  endfacet
  facet normal 7.071068e-01 -7.071068e-01 3.349531e-15
    outer loop
      vertex   -3.180000e+01 2.515000e+01 1.500000e+00
      vertex   -3.480000e+01 2.215000e+01 1.500000e+00
      vertex   -3.266603e+01 2.428397e+01 3.330669e-15
    endloop
  endfacet
  facet normal 7.071068e-01 -7.071068e-01 0.000000e+00
    outer loop
      vertex   -3.266603e+01 2.428397e+01 3.330669e-15
      vertex   -3.480000e+01 2.215000e+01 1.500000e+00
      vertex   -3.480000e+01 2.215000e+01 -1.500000e+00
    endloop
  endfacet
  facet normal 7.071068e-01 -7.071068e-01 -3.349531e-15
    outer loop
      vertex   -3.266603e+01 2.428397e+01 3.330669e-15
      vertex   -3.480000e+01 2.215000e+01 -1.500000e+00
      vertex   -3.180000e+01 2.515000e+01 -1.500000e+00
    endloop
  endfacet
endsolid
